<?xml version="1.0" encoding="utf-8"?>
<!-- Generator: Adobe Illustrator 16.0.0, SVG Export Plug-In . SVG Version: 6.00 Build 0)  -->
<!DOCTYPE svg PUBLIC "-//W3C//DTD SVG 1.1//EN" "http://www.w3.org/Graphics/SVG/1.1/DTD/svg11.dtd">
<svg version="1.1" id="Ebene_1" xmlns="http://www.w3.org/2000/svg" xmlns:xlink="http://www.w3.org/1999/xlink" x="0px" y="0px"
	 width="283.46px" height="283.46px" viewBox="0 0 283.46 283.46" enable-background="new 0 0 283.46 283.46" xml:space="preserve">
<path fill="#EA4C6D" d="M179.866,154.996c1.788,3.188,12.387,27.607-0.059,25.979c-18.839-2.464-37.713-3.211-56.611-3.317
	c-0.5,25.544-0.208,51.029,3.847,76.426c4.227,26.45-52.793,43.73-57.698,13.034c-4.727-29.573-4.338-59.122-3.535-88.919
	c-0.418,0-0.838,0.012-1.256,0.012c-18.286,0.089-45.25-50.881-28.626-50.958c9.572-0.047,19.145-0.206,28.709-0.347
	c-0.327-11.951-0.115-23.791,2.022-34.966c9.552-49.965,56.655-55.464,98.979-57.917c12.587-0.735,25.497,8.381,21.503,22.144
	c-4.229,14.586-20.586,22.668-34.687,23.485c-17.219,1-29.605-5.47-29.423,13.863c0.108,11.369,0.902,22.697,1.135,34.055
	c9.011,0.512,18.016,1.27,27.012,2.447C164.039,131.699,173.926,144.433,179.866,154.996z M246.758,0.003
	c-29.943,0-59.887,0-89.833,0c-9.675,0-22.365,17.304-8.723,17.304c14.201,0,28.4,0,42.604,0c0.082,0.436,0.129,0.835,0.259,1.33
	c4.435,16.839,16.627,77.543-16.622,70.326c-10.964-2.382-3.405,18.369,4.423,20.068c45.53,9.887,34.072-61.492,27.55-86.266
	c-0.488-1.865-1.658-3.752-3.123-5.458c11.581,0,23.168,0,34.749,0C247.717,17.307,260.403,0.003,246.758,0.003z M223.579,38.992
	c0,14.051,0,28.103,0,42.16c0,11.21,22.585,10.816,22.585-0.447c0-14.051,0-28.103,0-42.16
	C246.164,27.335,223.579,27.729,223.579,38.992z"/>
</svg>
