<?xml version="1.0" encoding="utf-8"?>
<!-- Generator: Adobe Illustrator 16.0.0, SVG Export Plug-In . SVG Version: 6.00 Build 0)  -->
<!DOCTYPE svg PUBLIC "-//W3C//DTD SVG 1.1//EN" "http://www.w3.org/Graphics/SVG/1.1/DTD/svg11.dtd">
<svg version="1.1" id="Ebene_1" xmlns="http://www.w3.org/2000/svg" xmlns:xlink="http://www.w3.org/1999/xlink" x="0px" y="0px"
	 width="283.46px" height="283.46px" viewBox="0 0 283.46 283.46" enable-background="new 0 0 283.46 283.46" xml:space="preserve">
<path fill="#EA4C6D" d="M210.139,194.317c-7.916,18.521-17.598,47.671-39.424,54.593c-20.434,6.482-42.125,2.547-59.399-9.986
	c-20.218-14.675-23.75-47.55-25.109-70.159c-0.162-2.705-0.241-5.411-0.358-8.119c-13.087-0.142-26.173-0.482-39.251-1.45
	c-2.85-0.212-11.575-2.234-6.173-6.237c5.352-3.967,13.854-4.685,20.248-4.214c8.261,0.611,16.521,0.938,24.785,1.146
	c-0.335-13.921-0.203-27.837,0.129-41.75c-9.813,6.408-21.874,8.582-35.587,4.505c-0.038,0.388-0.083,0.779-0.112,1.167
	c4.905,9.743-3.229,21.921-16.654,13.749c-13.978-8.511-8.64-25.403-7.505-38.728c0.853-9.993,12.586-7.481,18.109-4.062
	C72.773,102.706,86.951,62.59,87.263,41.76c0.279-18.768,25.947-8.802,25.826,5.529c-0.285,33.943-3.453,68.6-2.638,102.849
	c12.384-0.029,24.768-0.186,37.161-0.221c20.668-0.059,5.347,10.587-6.812,10.622c-9.99,0.026-19.974,0.115-29.958,0.174
	c0.539,10.681,1.465,21.317,3.156,31.86c2.779,17.315,11.772,35.854,33.296,32.72c7.616-1.108,14.28-3.946,19.191-10.069
	c4.358-5.432,7.805-11.493,10.846-17.78c-13.151-1.488-23.933-26.214-7.404-26.705c9.457-0.279,17.856-0.171,27.138,1.532
	C206.346,173.973,213.985,185.324,210.139,194.317z M245.481,156.951c-24.126-0.559-49.746-8.258-66.368-26.582
	c-0.959-1.053-7.711-8.251-9.704-6.352c-2.023,1.935,4.935,8.925,5.893,9.987c21.851,24.088,51.471,38.909,84.202,39.668
	C261.092,173.708,251.352,157.09,245.481,156.951z"/>
</svg>
