<?xml version="1.0" encoding="utf-8"?>
<!-- Generator: Adobe Illustrator 16.0.0, SVG Export Plug-In . SVG Version: 6.00 Build 0)  -->
<!DOCTYPE svg PUBLIC "-//W3C//DTD SVG 1.1//EN" "http://www.w3.org/Graphics/SVG/1.1/DTD/svg11.dtd">
<svg version="1.1" id="Ebene_1" xmlns="http://www.w3.org/2000/svg" xmlns:xlink="http://www.w3.org/1999/xlink" x="0px" y="0px"
	 width="283.46px" height="283.46px" viewBox="0 0 283.46 283.46" enable-background="new 0 0 283.46 283.46" xml:space="preserve">
<path fill="#EA4C6D" d="M265.818,62.227c-4.576,13.122-10.828,26.776-21.768,35.881c-5.576,4.644-12.446,8.749-19.88,9.375
	c-3.177,0.268-6.064-0.165-8.882-0.865c6.011,5.226,9.734,13.207,9.723,24.559c-0.047,42.371-17.021,88.877-55.211,110.834
	c-10.175,5.857-40.592,16.456-50.402,4.435c-21.883-26.82-36.216-57.764-52.908-87.648c-12.27,4.182-25.282,5.635-39.978,2.047
	C-4.065,153.38,50.548,132.9,65.19,136.473c-17.604-4.296-18.504,2.15-3.329-7.69c8.496-5.511,42.771-16.836,50.402-4.429
	c14.896,24.214,26.962,49.958,41.631,74.155c2.591-5.87,4.731-11.916,6.378-17.88c2.594-9.423,8.852-30.803,5.617-45.109
	c-18.718,4.085-41.795,1.994-37.175-6.305c10.654-19.136,44.368-33.652,68.906-30.067c-5.023-6.27-7.888-17.663,0.053-15.918
	c7.058,1.55,13.357,5.62,20.773,3.479c5.082-1.465,9.97-4.217,13.822-7.867c8.604-8.164,14.393-19.018,18.269-30.132
	C254.126,38.424,268.265,55.216,265.818,62.227z M221.165,68.779c0.111-7.108,1.724-13.804,4.517-20.327
	c2.247-5.237-12.827-20.703-14.81-16.08c-2.794,6.522-4.405,13.219-4.517,20.327c-0.077,4.679,3.487,9.261,6.499,12.531
	C213.266,65.676,221.101,72.834,221.165,68.779z"/>
</svg>
